<svg xmlns="http://www.w3.org/2000/svg" xmlns:xlink="http://www.w3.org/1999/xlink" width="500" zoomAndPan="magnify" viewBox="0 0 375 374.999991" height="500" preserveAspectRatio="xMidYMid meet" version="1.0"><defs><g/><clipPath id="65065067c6"><path d="M 94 115 L 281.53125 115 L 281.53125 225 L 94 225 Z M 94 115 " clip-rule="nonzero"/></clipPath></defs><rect x="-37.5" width="450" fill="#ffffff" y="-37.499999" height="449.999989" fill-opacity="1"/><rect x="-37.5" width="450" fill="#ffffff" y="-37.499999" height="449.999989" fill-opacity="1"/><rect x="-37.5" width="450" fill="#ffffff" y="-37.499999" height="449.999989" fill-opacity="1"/><g clip-path="url(#65065067c6)"><path fill="#ec1464" d="M 94.863281 215.140625 C 97.140625 207.5625 96.605469 196.898438 105.636719 193.875 C 105.6875 181.597656 105.636719 169.320312 105.652344 157.058594 C 102.484375 155.261719 96.503906 154.996094 96.488281 150.328125 C 97.984375 148.316406 100.441406 147.488281 102.648438 146.558594 C 127.816406 136.90625 152.957031 127.167969 178.109375 117.449219 C 184.816406 114.921875 192.484375 114.957031 199.226562 117.398438 C 223.265625 126.585938 247.226562 136.007812 271.28125 145.160156 C 275.148438 146.789062 280.082031 147.554688 281.707031 152.039062 C 279.449219 153.617188 277.089844 155.0625 274.488281 156.007812 C 263.109375 160.378906 251.734375 164.765625 240.359375 169.15625 C 241.734375 174.890625 240.972656 181.371094 240.449219 187.273438 C 237.34375 195.632812 227.832031 198.671875 220.078125 201.113281 C 201.5 205.964844 181.773438 206.132812 162.964844 202.460938 C 154.777344 200.582031 146.078125 198.191406 139.933594 192.128906 C 134.523438 186.363281 137.046875 177.742188 136.597656 170.628906 C 136.550781 169.996094 136.664062 169.476562 136.878906 169.039062 C 129.097656 166.042969 121.3125 163.046875 113.539062 160.035156 C 113.523438 171.332031 113.605469 182.613281 113.554688 193.894531 C 122.058594 196.585938 121.957031 206.371094 123.996094 213.5 C 125.257812 217.238281 125.859375 222.917969 121.160156 224.449219 C 113.65625 225.144531 106.003906 224.960938 98.480469 224.546875 C 94.3125 223.566406 93.46875 218.628906 94.863281 215.140625 Z M 144.855469 185.777344 C 148.738281 190.398438 154.898438 192.039062 160.445312 193.71875 C 178.160156 198.089844 196.917969 198.191406 214.75 194.300781 C 220.992188 192.574219 228.167969 191.046875 232.484375 185.8125 C 233.671875 181.339844 232.84375 176.609375 233.023438 171.992188 C 222.066406 176.222656 211.109375 180.457031 200.15625 184.6875 C 192.882812 187.546875 184.484375 187.5625 177.214844 184.640625 C 166.296875 180.378906 155.367188 176.164062 144.4375 171.953125 C 144.691406 176.546875 143.960938 181.234375 144.855469 185.777344 Z M 116.578125 216.902344 C 115.546875 211.917969 114.339844 206.949219 113.023438 202.035156 C 110.800781 201.933594 108.59375 201.851562 106.367188 201.765625 C 104.921875 206.769531 103.660156 211.816406 102.566406 216.902344 C 107.246094 216.886719 111.914062 216.902344 116.578125 216.902344 Z M 116.578125 216.902344 " fill-opacity="1" fill-rule="nonzero"/></g><g fill="#ec1464" fill-opacity="1"><g transform="translate(93.293508, 249.479559)"><g><path d="M 12.65625 0.375 C 9.15625 0.375 6.4375 -0.554688 4.5 -2.421875 C 2.5625 -4.285156 1.59375 -6.9375 1.59375 -10.375 C 1.59375 -13.925781 2.488281 -16.648438 4.28125 -18.546875 C 6.082031 -20.441406 8.644531 -21.390625 11.96875 -21.390625 C 15.132812 -21.390625 17.578125 -20.5625 19.296875 -18.90625 C 21.023438 -17.257812 21.890625 -14.882812 21.890625 -11.78125 L 21.890625 -8.546875 L 8.921875 -8.546875 C 8.972656 -7.378906 9.40625 -6.457031 10.21875 -5.78125 C 11.03125 -5.113281 12.132812 -4.78125 13.53125 -4.78125 C 14.800781 -4.78125 15.96875 -4.898438 17.03125 -5.140625 C 18.101562 -5.390625 19.265625 -5.804688 20.515625 -6.390625 L 20.515625 -1.171875 C 19.378906 -0.585938 18.203125 -0.1875 16.984375 0.03125 C 15.773438 0.257812 14.332031 0.375 12.65625 0.375 Z M 12.234375 -16.453125 C 11.378906 -16.453125 10.660156 -16.179688 10.078125 -15.640625 C 9.503906 -15.109375 9.171875 -14.269531 9.078125 -13.125 L 15.3125 -13.125 C 15.28125 -14.132812 14.988281 -14.941406 14.4375 -15.546875 C 13.894531 -16.148438 13.160156 -16.453125 12.234375 -16.453125 Z M 12.234375 -16.453125 "/></g></g></g><g fill="#ec1464" fill-opacity="1"><g transform="translate(116.778912, 249.479559)"><g><path d="M 9.03125 0.375 C 7.539062 0.375 6.234375 -0.0507812 5.109375 -0.90625 C 3.992188 -1.757812 3.128906 -3.015625 2.515625 -4.671875 C 1.898438 -6.328125 1.59375 -8.265625 1.59375 -10.484375 C 1.59375 -13.898438 2.28125 -16.570312 3.65625 -18.5 C 5.03125 -20.425781 6.914062 -21.390625 9.3125 -21.390625 C 10.488281 -21.390625 11.519531 -21.15625 12.40625 -20.6875 C 13.289062 -20.21875 14.097656 -19.425781 14.828125 -18.3125 L 14.96875 -18.3125 C 14.738281 -19.957031 14.625 -21.601562 14.625 -23.25 L 14.625 -28.875 L 21.9375 -28.875 L 21.9375 0 L 16.453125 0 L 14.90625 -2.65625 L 14.625 -2.65625 C 13.375 -0.632812 11.507812 0.375 9.03125 0.375 Z M 12 -5.359375 C 13.164062 -5.359375 13.984375 -5.722656 14.453125 -6.453125 C 14.929688 -7.179688 15.191406 -8.304688 15.234375 -9.828125 L 15.234375 -10.40625 C 15.234375 -12.257812 14.96875 -13.578125 14.4375 -14.359375 C 13.90625 -15.148438 13.070312 -15.546875 11.9375 -15.546875 C 10.976562 -15.546875 10.234375 -15.097656 9.703125 -14.203125 C 9.179688 -13.304688 8.921875 -12.03125 8.921875 -10.375 C 8.921875 -8.738281 9.1875 -7.492188 9.71875 -6.640625 C 10.25 -5.785156 11.007812 -5.359375 12 -5.359375 Z M 12 -5.359375 "/></g></g></g><g fill="#ec1464" fill-opacity="1"><g transform="translate(141.21041, 249.479559)"><g><path d="M 17.484375 0 L 16.5625 -2.609375 L 16.140625 -2.609375 C 15.535156 -1.648438 14.691406 -0.910156 13.609375 -0.390625 C 12.523438 0.117188 11.253906 0.375 9.796875 0.375 C 7.484375 0.375 5.679688 -0.296875 4.390625 -1.640625 C 3.109375 -2.984375 2.46875 -4.878906 2.46875 -7.328125 L 2.46875 -21.015625 L 9.71875 -21.015625 L 9.71875 -9.53125 C 9.71875 -8.164062 9.910156 -7.128906 10.296875 -6.421875 C 10.691406 -5.710938 11.335938 -5.359375 12.234375 -5.359375 C 13.484375 -5.359375 14.375 -5.847656 14.90625 -6.828125 C 15.4375 -7.816406 15.703125 -9.476562 15.703125 -11.8125 L 15.703125 -21.015625 L 22.953125 -21.015625 L 22.953125 0 Z M 17.484375 0 "/></g></g></g><g fill="#ec1464" fill-opacity="1"><g transform="translate(166.662206, 249.479559)"><g><path d="M 12.078125 0.375 C 8.640625 0.375 6.03125 -0.550781 4.25 -2.40625 C 2.476562 -4.269531 1.59375 -6.9375 1.59375 -10.40625 C 1.59375 -13.894531 2.550781 -16.597656 4.46875 -18.515625 C 6.382812 -20.429688 9.113281 -21.390625 12.65625 -21.390625 C 15.09375 -21.390625 17.382812 -20.859375 19.53125 -19.796875 L 17.40625 -14.4375 C 16.53125 -14.820312 15.71875 -15.128906 14.96875 -15.359375 C 14.226562 -15.585938 13.457031 -15.703125 12.65625 -15.703125 C 11.476562 -15.703125 10.566406 -15.242188 9.921875 -14.328125 C 9.285156 -13.410156 8.96875 -12.117188 8.96875 -10.453125 C 8.96875 -7.085938 10.207031 -5.40625 12.6875 -5.40625 C 14.820312 -5.40625 16.863281 -6.019531 18.8125 -7.25 L 18.8125 -1.484375 C 16.945312 -0.242188 14.703125 0.375 12.078125 0.375 Z M 12.078125 0.375 "/></g></g></g><g fill="#ec1464" fill-opacity="1"><g transform="translate(187.142368, 249.479559)"><g><path d="M 16.21875 0 L 14.828125 -2.78125 L 14.671875 -2.78125 C 13.703125 -1.570312 12.707031 -0.742188 11.6875 -0.296875 C 10.675781 0.148438 9.363281 0.375 7.75 0.375 C 5.769531 0.375 4.210938 -0.21875 3.078125 -1.40625 C 1.941406 -2.59375 1.375 -4.265625 1.375 -6.421875 C 1.375 -8.660156 2.148438 -10.328125 3.703125 -11.421875 C 5.265625 -12.515625 7.523438 -13.128906 10.484375 -13.265625 L 13.984375 -13.375 L 13.984375 -13.671875 C 13.984375 -15.398438 13.132812 -16.265625 11.4375 -16.265625 C 9.894531 -16.265625 7.941406 -15.75 5.578125 -14.71875 L 3.484375 -19.5 C 5.929688 -20.757812 9.023438 -21.390625 12.765625 -21.390625 C 15.460938 -21.390625 17.550781 -20.722656 19.03125 -19.390625 C 20.507812 -18.054688 21.25 -16.1875 21.25 -13.78125 L 21.25 0 Z M 10.84375 -4.75 C 11.71875 -4.75 12.46875 -5.023438 13.09375 -5.578125 C 13.71875 -6.140625 14.03125 -6.863281 14.03125 -7.75 L 14.03125 -9.390625 L 12.359375 -9.3125 C 9.972656 -9.226562 8.78125 -8.351562 8.78125 -6.6875 C 8.78125 -5.394531 9.46875 -4.75 10.84375 -4.75 Z M 10.84375 -4.75 "/></g></g></g><g fill="#ec1464" fill-opacity="1"><g transform="translate(210.81328, 249.479559)"><g><path d="M 12.796875 -5.359375 C 13.773438 -5.359375 14.945312 -5.601562 16.3125 -6.09375 L 16.3125 -0.796875 C 15.332031 -0.378906 14.398438 -0.0820312 13.515625 0.09375 C 12.628906 0.28125 11.59375 0.375 10.40625 0.375 C 7.96875 0.375 6.210938 -0.21875 5.140625 -1.40625 C 4.066406 -2.601562 3.53125 -4.441406 3.53125 -6.921875 L 3.53125 -15.59375 L 0.984375 -15.59375 L 0.984375 -18.53125 L 4.21875 -20.8125 L 6.09375 -25.234375 L 10.84375 -25.234375 L 10.84375 -21.015625 L 16 -21.015625 L 16 -15.59375 L 10.84375 -15.59375 L 10.84375 -7.40625 C 10.84375 -6.039062 11.492188 -5.359375 12.796875 -5.359375 Z M 12.796875 -5.359375 "/></g></g></g><g fill="#ec1464" fill-opacity="1"><g transform="translate(228.288201, 249.479559)"><g><path d="M 9.796875 0 L 2.546875 0 L 2.546875 -21.015625 L 9.796875 -21.015625 Z M 2.359375 -26.25 C 2.359375 -27.34375 2.660156 -28.15625 3.265625 -28.6875 C 3.867188 -29.21875 4.847656 -29.484375 6.203125 -29.484375 C 7.546875 -29.484375 8.523438 -29.207031 9.140625 -28.65625 C 9.765625 -28.113281 10.078125 -27.3125 10.078125 -26.25 C 10.078125 -24.125 8.785156 -23.0625 6.203125 -23.0625 C 3.640625 -23.0625 2.359375 -24.125 2.359375 -26.25 Z M 2.359375 -26.25 "/></g></g></g><g fill="#ec1464" fill-opacity="1"><g transform="translate(240.643081, 249.479559)"><g><path d="M 22.578125 -10.5625 C 22.578125 -7.125 21.648438 -4.441406 19.796875 -2.515625 C 17.953125 -0.585938 15.367188 0.375 12.046875 0.375 C 8.847656 0.375 6.304688 -0.609375 4.421875 -2.578125 C 2.535156 -4.546875 1.59375 -7.207031 1.59375 -10.5625 C 1.59375 -13.988281 2.515625 -16.648438 4.359375 -18.546875 C 6.210938 -20.441406 8.8125 -21.390625 12.15625 -21.390625 C 14.21875 -21.390625 16.039062 -20.953125 17.625 -20.078125 C 19.207031 -19.203125 20.425781 -17.941406 21.28125 -16.296875 C 22.144531 -14.660156 22.578125 -12.75 22.578125 -10.5625 Z M 8.96875 -10.5625 C 8.96875 -8.75 9.207031 -7.367188 9.6875 -6.421875 C 10.164062 -5.484375 10.972656 -5.015625 12.109375 -5.015625 C 13.242188 -5.015625 14.039062 -5.484375 14.5 -6.421875 C 14.96875 -7.367188 15.203125 -8.75 15.203125 -10.5625 C 15.203125 -12.351562 14.960938 -13.707031 14.484375 -14.625 C 14.015625 -15.539062 13.210938 -16 12.078125 -16 C 10.960938 -16 10.164062 -15.539062 9.6875 -14.625 C 9.207031 -13.71875 8.96875 -12.363281 8.96875 -10.5625 Z M 8.96875 -10.5625 "/></g></g></g><g fill="#ec1464" fill-opacity="1"><g transform="translate(264.851969, 249.479559)"><g><path d="M 15.765625 0 L 15.765625 -11.46875 C 15.765625 -12.863281 15.5625 -13.914062 15.15625 -14.625 C 14.757812 -15.34375 14.117188 -15.703125 13.234375 -15.703125 C 12.003906 -15.703125 11.117188 -15.210938 10.578125 -14.234375 C 10.035156 -13.253906 9.765625 -11.578125 9.765625 -9.203125 L 9.765625 0 L 2.5 0 L 2.5 -21.015625 L 7.984375 -21.015625 L 8.890625 -18.421875 L 9.3125 -18.421875 C 9.9375 -19.410156 10.796875 -20.148438 11.890625 -20.640625 C 12.984375 -21.140625 14.238281 -21.390625 15.65625 -21.390625 C 17.988281 -21.390625 19.800781 -20.710938 21.09375 -19.359375 C 22.382812 -18.015625 23.03125 -16.117188 23.03125 -13.671875 L 23.03125 0 Z M 15.765625 0 "/></g></g></g></svg>